<svg width="2525" height="2975" viewBox="0 0 2525 2975" fill="none" xmlns="http://www.w3.org/2000/svg">
<path d="M1100.26 1624.69L283.235 1947.19C283.235 1947.19 218.964 1853.54 165.273 1805.63C108.066 1754.58 0.125488 1699.46 0.125488 1699.46C0.125488 1498.93 47.2573 1317.71 165.273 1109.65C262.257 938.677 401.497 799.386 498.839 726.655C566.563 843.291 638.367 912.555 719 973.264C751.503 997.736 785.552 1020.89 821.141 1045.1C832.371 1052.74 843.754 1060.48 855.29 1068.4C903.522 1101.52 954.867 1138.04 1010.24 1183.9C1072.89 1235.78 1122.14 1279.22 1167.72 1323.07C1166.84 1368.58 1162.71 1465.3 1143.84 1511.4C1116.6 1577.93 1100.26 1624.69 1100.26 1624.69Z" fill="#16C995"/>
<path d="M1339.32 1469.76C1233.11 1350 1159.62 1276.97 1025.29 1165.73C969.125 1119.22 917.119 1082.24 868.644 1048.95C856.907 1040.9 845.403 1033.07 834.108 1025.39L834.068 1025.36C798.598 1001.23 765.197 978.514 733.19 954.416C654.145 894.903 584.267 827.445 518.032 712.72C606.973 649.56 677.698 616.388 741.098 586.652C824.885 547.353 895.878 514.056 979.212 425.473C1110.77 285.631 1226.93 0.808472 1226.93 0.808472C1226.93 0.808472 2099.13 647.116 2363.41 1117.35L1380.28 1510.73L1339.32 1469.76Z" fill="#16C995"/>
<path d="M1698.78 2926.27C1590.93 2963.56 1592.62 2938.07 1592.62 2938.07C1592.62 2938.07 1602.05 2815.27 1604.41 2678.55C1605.65 2607.05 1604 2555.71 1557.23 2501.61C1506.56 2442.99 1449.16 2425.35 1371.88 2430.83C1290.36 2436.62 1266.42 2461.59 1226.93 2513.4C1199.01 2550.04 1184.17 2623.34 1184.17 2623.34C1184.17 2623.34 1162.07 2725.49 1132.56 2784.72C1090.21 2869.72 1021.64 2983.18 979.212 2973.46C840.668 2941.71 696.674 2880.13 542.752 2772.92C430.36 2694.64 283.235 2537 283.235 2537C283.235 2537 341.239 2411.13 354.012 2324.66C368.165 2228.85 342.216 2076.94 342.216 2076.94L1049.6 1783.77C1049.6 1783.77 1028.83 1892.48 1054.2 1953.92C1105.2 2077.4 1245.57 2124.36 1371.88 2080.84C1508.96 2033.6 1580.45 1947.03 1533.63 1746.65C1515.45 1668.83 1466.33 1616.89 1466.33 1616.89L2421.91 1235.55C2487.94 1388.69 2524.52 1557.5 2524.52 1734.85C2524.52 2072.09 2363.03 2449.84 2111.65 2678.55C2003.88 2776.6 1830.98 2880.57 1698.78 2926.27Z" fill="#16C995"/>
<path d="M1100.26 1624.69L283.235 1947.19C283.235 1947.19 218.964 1853.54 165.273 1805.63C108.066 1754.58 0.125488 1699.46 0.125488 1699.46C0.125488 1498.93 47.2573 1317.71 165.273 1109.65C262.257 938.677 401.497 799.386 498.839 726.655C566.563 843.291 638.367 912.555 719 973.264C751.503 997.736 785.552 1020.89 821.141 1045.1C832.371 1052.74 843.754 1060.48 855.29 1068.4C903.522 1101.52 954.867 1138.04 1010.24 1183.9C1072.89 1235.78 1122.14 1279.22 1167.72 1323.07C1166.84 1368.58 1162.71 1465.3 1143.84 1511.4C1116.6 1577.93 1100.26 1624.69 1100.26 1624.69Z" fill="#16C995"/>
<path d="M1339.32 1469.76C1233.11 1350 1159.62 1276.97 1025.29 1165.73C969.125 1119.22 917.119 1082.24 868.644 1048.95C856.907 1040.9 845.403 1033.07 834.108 1025.39L834.068 1025.36C798.598 1001.23 765.197 978.514 733.19 954.416C654.145 894.903 584.267 827.445 518.032 712.72C606.973 649.56 677.698 616.388 741.098 586.652C824.885 547.353 895.878 514.056 979.212 425.473C1110.77 285.631 1226.93 0.808472 1226.93 0.808472C1226.93 0.808472 2099.13 647.116 2363.41 1117.35L1380.28 1510.73L1339.32 1469.76Z" fill="#16C995"/>
<path d="M1698.78 2926.27C1590.93 2963.56 1592.62 2938.07 1592.62 2938.07C1592.62 2938.07 1602.05 2815.27 1604.41 2678.55C1605.65 2607.05 1604 2555.71 1557.23 2501.61C1506.56 2442.99 1449.16 2425.35 1371.88 2430.83C1290.36 2436.62 1266.42 2461.59 1226.93 2513.4C1199.01 2550.04 1184.17 2623.34 1184.17 2623.34C1184.17 2623.34 1162.07 2725.49 1132.56 2784.72C1090.21 2869.72 1021.64 2983.18 979.212 2973.46C840.668 2941.71 696.674 2880.13 542.752 2772.92C430.36 2694.64 283.235 2537 283.235 2537C283.235 2537 341.239 2411.13 354.012 2324.66C368.165 2228.85 342.216 2076.94 342.216 2076.94L1049.6 1783.77C1049.6 1783.77 1028.83 1892.48 1054.2 1953.92C1105.2 2077.4 1245.57 2124.36 1371.88 2080.84C1508.96 2033.6 1580.45 1947.03 1533.63 1746.65C1515.45 1668.83 1466.33 1616.89 1466.33 1616.89L2421.91 1235.55C2487.94 1388.69 2524.52 1557.5 2524.52 1734.85C2524.52 2072.09 2363.03 2449.84 2111.65 2678.55C2003.88 2776.6 1830.98 2880.57 1698.78 2926.27Z" fill="#16C995"/>
<g filter="url(#filter0_f)">
<path d="M1011.23 579.95C1078.36 644.706 1124.38 683.807 1207.51 742.382C1242.28 766.873 1274.19 786.018 1303.89 803.176C1311.08 807.33 1318.13 811.359 1325.04 815.315L1325.07 815.329C1346.79 827.752 1367.24 839.45 1386.95 852.01C1435.6 883.028 1479.27 919.06 1522.91 982.666C1473.89 1023.23 1434.16 1045.6 1398.55 1065.65C1351.48 1092.15 1311.61 1114.61 1266.98 1169.67C1196.52 1256.6 1141.42 1426.93 1141.42 1426.93C1141.42 1426.93 604.971 1090.69 430.332 829.664L985.562 558.003L1011.23 579.95Z" fill="url(#paint0_linear)" fill-opacity="0.6"/>
</g>
<g filter="url(#filter1_f)">
<path d="M554.549 739.601C657.195 906.141 762.506 922.932 916.406 1037.2C1022.43 1115.92 1073.74 1164.13 1168.58 1262.07" stroke="#19211C" stroke-width="162.008"/>
</g>
<path fill-rule="evenodd" clip-rule="evenodd" d="M1020.49 1179.2C1156.37 1291.73 1230.71 1365.6 1338.14 1486.74L1379.58 1528.18L2374.08 1130.26C2106.74 654.59 1224.46 0.808472 1224.46 0.808472C1224.46 0.808472 1106.95 288.925 973.875 430.383C889.578 519.991 817.764 553.673 733.008 593.426C668.875 623.506 597.331 657.062 507.363 720.952C574.363 837.003 645.049 905.241 725.008 965.443C757.385 989.82 791.173 1012.8 827.053 1037.21L827.093 1037.23L827.159 1037.28C838.564 1045.04 850.179 1052.94 862.028 1061.07C911.064 1094.74 963.671 1132.15 1020.49 1179.2ZM212.457 2430.83C212.457 2430.83 101.025 2266.27 59.1064 2147.72C15.424 2024.19 0.125244 1817.43 0.125244 1817.43C0.125244 1817.43 199.297 1977.55 236.05 2124.13C265.267 2240.65 212.457 2430.83 212.457 2430.83Z" fill="url(#paint1_radial)"/>
<defs>
<filter id="filter0_f" x="247.543" y="375.215" width="1458.15" height="1234.5" filterUnits="userSpaceOnUse" color-interpolation-filters="sRGB">
<feFlood flood-opacity="0" result="BackgroundImageFix"/>
<feBlend mode="normal" in="SourceGraphic" in2="BackgroundImageFix" result="shape"/>
<feGaussianBlur stdDeviation="91.3941" result="effect1_foregroundBlur"/>
</filter>
<filter id="filter1_f" x="355.984" y="567.492" width="1000.4" height="880.535" filterUnits="userSpaceOnUse" color-interpolation-filters="sRGB">
<feFlood flood-opacity="0" result="BackgroundImageFix"/>
<feBlend mode="normal" in="SourceGraphic" in2="BackgroundImageFix" result="shape"/>
<feGaussianBlur stdDeviation="64.8034" result="effect1_foregroundBlur"/>
</filter>
<linearGradient id="paint0_linear" x1="844.951" y1="1038.4" x2="708.559" y2="1210.28" gradientUnits="userSpaceOnUse">
<stop stop-color="#091424"/>
<stop offset="1" stop-color="#5B638D" stop-opacity="0"/>
</linearGradient>
<radialGradient id="paint1_radial" cx="0" cy="0" r="1" gradientUnits="userSpaceOnUse" gradientTransform="translate(1203.34 1251.21) rotate(-69.1455) scale(1060.35 1295.93)">
<stop offset="0.564605" stop-color="#16C995"/>
<stop offset="1" stop-color="#489B83"/>
</radialGradient>
</defs>
</svg>
